<?xml version="1.0" encoding="UTF-8"?>
<svg xmlns="http://www.w3.org/2000/svg" width="1024" height="1024" viewBox="0 0 1024 1024" fill="none">
  <defs>
    <radialGradient id="g" cx="50%" cy="35%" r="70%">
      <stop offset="0%" stop-color="#5b6bff" />
      <stop offset="60%" stop-color="#2b6ef6" />
      <stop offset="100%" stop-color="#07103a" />
    </radialGradient>
    <filter id="f" x="-20%" y="-20%" width="140%" height="140%">
      <feDropShadow dx="0" dy="20" stdDeviation="30" flood-color="#000" flood-opacity="0.6" />
    </filter>
  </defs>

  <!-- background disc -->
  <circle cx="512" cy="420" r="380" fill="url(#g)" filter="url(#f)" />

  <!-- outer ring -->
  <circle cx="512" cy="420" r="440" stroke="#111428" stroke-width="36" fill="none" opacity="0.85" />
  <circle cx="512" cy="420" r="380" stroke="rgba(255,255,255,0.08)" stroke-width="6" fill="none" />

  <!-- laurels (stylized) -->
  <g fill="#dbe4ff" opacity="0.95" transform="translate(0,40)">
    <path d="M210 440c40-80 120-180 170-140 20 14-44 92-98 156-80 92-112 38-72-16z" transform="translate(0,0)"/>
    <path d="M814 440c-40-80-120-180-170-140-20 14 44 92 98 156 80 92 112 38 72-16z" transform="translate(0,0)"/>
  </g>

  <!-- central emblem (star + ring) -->
  <g transform="translate(512,420)">
    <circle r="120" fill="#08103a" stroke="#5b6bff" stroke-width="6" />
    <path d="M0-72 L18-18 L72-18 L26 12 L42 66 L0 36 L-42 66 L-26 12 L-72-18 L-18-18 Z" fill="#ffd86b" transform="scale(1.2)" />
  </g>

  <!-- small stars around ring -->
  <g fill="#ffd86b" opacity="0.95">
    <circle cx="512" cy="80" r="8" />
    <circle cx="730" cy="200" r="8" />
    <circle cx="294" cy="200" r="8" />
    <circle cx="730" cy="640" r="8" />
    <circle cx="294" cy="640" r="8" />
  </g>

  <!-- text placeholder (not trademark) -->
  <text x="512" y="900" font-family="Arial, Helvetica, sans-serif" font-size="48" text-anchor="middle" fill="#dbe4ff" opacity="0.95">HOUSE GAME</text>
</svg>